<svg id="SvgjsSvg1415" width="360" height="360" xmlns="http://www.w3.org/2000/svg" version="1.1" xmlns:xlink="http://www.w3.org/1999/xlink" xmlns:svgjs="http://svgjs.com/svgjs"><defs id="SvgjsDefs1416"></defs><g id="SvgjsG1417"><svg xmlns="http://www.w3.org/2000/svg" enable-background="new 0 0 1000 1000" viewBox="0 0 1000 1000" width="360" height="360"><path fill="#d6315d" d="M0 0h1000v1000H0z" class="color3197d6 svgShape"></path><ellipse cx="492.244" cy="720.831" fill="#e9e268" opacity=".64" rx="235.119" ry="47.346" class="color68cce9 svgShape"></ellipse><path fill="#282324" stroke="#000000" stroke-linecap="round" stroke-linejoin="round" stroke-miterlimit="10" stroke-width="4" d="M379.541 713.161c3.339-10.675 13.416-16.43 29.809-21.192 10.442-3.033 23.625-4.395 44.264-8.579 10.068-2.041 17.166-5.966 17.166-5.966v11.45s-68.523 13.525-79.185 31.247c-5.206 8.653-3.603 29.959 20.867 32.151-7.473 1.092-19.797-.794-26.406-7.491-8.191-8.299-10.358-19.333-6.515-31.62z" class="color282323 svgShape colorStroke000 svgStroke"></path><path fill="#442a31" d="M470.78 688.875s-41.024 7.598-62.891 17.029c-19.215 8.287-18.637 16.853-19.124 25.657-.281 5.082 3.289 17.718 17.897 19.876 17.391 2.57 37.936-.179 64.118-16.87v-45.692z" class="color442c2a svgShape"></path><path fill="#442a31" d="M388.765 731.561c.394-7.123.095-14.091 10.142-20.881-.444 2.46-.497 4.94-.635 7.439-.281 5.082 11.984-1.538 26.593.62 15.229 2.25 24.182 19.678 45.915 7.98v7.848c-26.182 16.691-46.727 19.439-64.118 16.87-14.608-2.158-18.178-14.794-17.897-19.876z" opacity=".37" class="color442c2a svgShape"></path><path fill="none" stroke="#000000" stroke-linecap="round" stroke-linejoin="round" stroke-miterlimit="10" stroke-width="4" d="M470.78 688.875s-41.024 7.598-62.891 17.029c-19.215 8.287-18.637 16.853-19.124 25.657-.281 5.082 3.289 17.718 17.897 19.876 17.391 2.57 37.936-.179 64.118-16.87v-45.692z" class="colorStroke000 svgStroke"></path><path fill="none" stroke="#000000" stroke-linecap="round" stroke-linejoin="round" stroke-miterlimit="10" stroke-width="4" d="M432.83 712.398c-3.289 1.806-2.487 19.253 5.509 21.695M445.313 711.133c-3.419 4.812-.964 16.058 5.05 18.882M456.8 707.132c-3.419 4.812-.964 16.058 5.05 18.882" class="colorStroke000 svgStroke"></path><path fill="#28151a" d="M574.836 655.305c-21.58 14.985-52.328 23.58-84.359 23.58-32.031 0-62.778-8.595-84.358-23.58-9.911-6.882-26.536-21.293-26.536-40.492s16.626-33.61 26.536-40.492c21.58-14.985 52.327-23.58 84.358-23.58 32.031 0 62.779 8.595 84.359 23.58 9.911 6.882 26.536 21.293 26.536 40.492s-16.626 33.61-26.536 40.492z" class="color151e28 svgShape"></path><path fill="#492a32" d="M673.659 630.76c-.39 1.97-.85 3.93-1.38 5.87-15.56 56.93-90.8 100.1-181.27 100.1-90.71 0-166.11-43.4-181.4-100.54-.43-1.6-.81-3.2-1.13-4.82-.43-2.96-.34-5.96.32-8.95 3.73-16.77 24.14-26.49 45.58-21.72 14.1 3.14 25.15 11.76 29.99 22.07.53 2.24 1.26 4.4 2.15 6.47 5.16 11.98 15.64 21 22.65 26.03 20.94 14.98 50.76 23.58 81.84 23.58 31.07 0 60.9-8.6 81.83-23.58 7.05-5.06 17.61-14.16 22.74-26.24.82-1.94 1.5-3.95 2.01-6.04 4.78-10.4 15.87-19.13 30.08-22.29 21.45-4.77 41.85 4.95 45.58 21.72.621 2.78.741 5.58.41 8.34z" class="color2a3749 svgShape"></path><path fill="#28151a" d="M673.25 622.42a25.491 25.491 0 0 0-.355-1.384 85.149 85.149 0 0 1-1.165 4.878c-15.56 56.93-90.8 100.1-181.27 100.1-90.71 0-166.11-43.4-181.4-100.54a81.075 81.075 0 0 1-.468-1.854 24.821 24.821 0 0 0-.112 7.749c.32 1.62.7 3.22 1.13 4.82 15.29 57.14 90.69 100.54 181.4 100.54 90.47 0 165.71-43.17 181.27-100.1.53-1.94.99-3.9 1.38-5.87.33-2.759.21-5.559-.41-8.339z" opacity=".67" class="color151e28 svgShape"></path><path fill="none" stroke="#000000" stroke-linecap="round" stroke-linejoin="round" stroke-miterlimit="10" stroke-width="4" d="M673.659 630.76c-.39 1.97-.85 3.93-1.38 5.87-15.56 56.93-90.8 100.1-181.27 100.1-90.71 0-166.11-43.4-181.4-100.54-.43-1.6-.81-3.2-1.13-4.82-.43-2.96-.34-5.96.32-8.95 3.73-16.77 24.14-26.49 45.58-21.72 14.1 3.14 25.15 11.76 29.99 22.07.53 2.24 1.26 4.4 2.15 6.47 5.16 11.98 15.64 21 22.65 26.03 20.94 14.98 50.76 23.58 81.84 23.58 31.07 0 60.9-8.6 81.83-23.58 7.05-5.06 17.61-14.16 22.74-26.24.82-1.94 1.5-3.95 2.01-6.04 4.78-10.4 15.87-19.13 30.08-22.29 21.45-4.77 41.85 4.95 45.58 21.72.621 2.78.741 5.58.41 8.34z" class="colorStroke000 svgStroke"></path><ellipse cx="492.244" cy="617.813" fill="#85203b" rx="90.149" ry="30.634" class="color9b2121 svgShape"></ellipse><ellipse cx="492.244" cy="617.813" fill="none" stroke="#000000" stroke-linecap="round" stroke-linejoin="round" stroke-miterlimit="10" stroke-width="4" rx="90.149" ry="30.634" class="colorStroke000 svgStroke"></ellipse><path fill="#cb3b3b" d="M594.843 551.028H387.169c-15.878 0-28.163-13.915-26.196-29.67l9.176-73.481c2.618-20.964 20.438-36.698 41.565-36.698h158.585c21.127 0 38.947 15.733 41.565 36.698l9.176 73.481c1.966 15.755-10.319 29.67-26.197 29.67z" class="colorf1534d svgShape"></path><path fill="none" stroke="#000000" stroke-linecap="round" stroke-linejoin="round" stroke-miterlimit="10" stroke-width="4" d="M594.843 551.028H387.169c-15.878 0-28.163-13.915-26.196-29.67l9.176-73.481c2.618-20.964 20.438-36.698 41.565-36.698h158.585c21.127 0 38.947 15.733 41.565 36.698l9.176 73.481c1.966 15.755-10.319 29.67-26.197 29.67zM409.712 473.242l-1.982 25.034M573.777 473.242l1.982 25.034" class="colorStroke000 svgStroke"></path><path fill="#cb3b3b" d="M594.843 551.028H387.169c-15.878 0-28.163-13.915-26.196-29.67l9.176-73.481c2.618-20.964 20.438-36.698 41.565-36.698h158.585c21.127 0 38.947 15.733 41.565 36.698l9.176 73.481c1.966 15.755-10.319 29.67-26.197 29.67z" class="colorf1534d svgShape"></path><g opacity=".24" fill="#000000" class="color000 svgShape"><path fill="#85203b" d="M370.148 455.637c2.618-20.964 20.438-36.698 41.565-36.698h158.585c21.127 0 38.947 15.733 41.565 36.698l9.1 72.878c.341-2.312.381-4.712.075-7.157l-9.176-73.481c-2.618-20.964-20.438-36.698-41.565-36.698H411.714c-21.127 0-38.947 15.733-41.565 36.698l-9.176 73.481a26.494 26.494 0 0 0 .075 7.157l9.1-72.878z" class="color9b2121 svgShape"></path><path fill="#85203b" d="M420.944 418.94s12.288 2.154 13.348 9.012c.842 5.452.701 9.136 2.846 11.282s7.045 6.661 16.923 6.661c-5.529-5.529-5.638-24.8-7.076-24.8-1.438 0-5.007-9.587-5.007-9.587l-4.84-2.196c0-.002-17.705 2.216-16.194 9.628zM552.274 418.94s-12.288 2.154-13.348 9.012c-.842 5.452-.701 9.136-2.846 11.282-2.146 2.146-7.045 6.661-16.923 6.661 5.529-5.529 5.638-24.8 7.076-24.8 1.438 0 5.007-9.587 5.007-9.587l4.84-2.196c0-.002 17.704 2.216 16.194 9.628z" class="color9b2121 svgShape"></path></g><path fill="none" stroke="#000000" stroke-linecap="round" stroke-linejoin="round" stroke-miterlimit="10" stroke-width="4" d="M594.843 551.028H387.169c-15.878 0-28.163-13.915-26.196-29.67l9.176-73.481c2.618-20.964 20.438-36.698 41.565-36.698h158.585c21.127 0 38.947 15.733 41.565 36.698l9.176 73.481c1.966 15.755-10.319 29.67-26.197 29.67zM409.712 473.242l-1.982 25.034M573.777 473.242l1.982 25.034" class="colorStroke000 svgStroke"></path><path fill="#85203b" d="m464.303 369.298-32.91-1.725-15.369 1.725s-10.347 7.682-10.347 9.803c0 2.121 1.016 19.242 1.016 19.242s24.308 3.253 26.872 5.816 18.032 16.934 18.032 16.934l14.935-5.795 7.802-20.799-10.031-25.201z" class="color9b2121 svgShape"></path><path fill="#cb3b3b" d="M458.522 356.564h-37.956c-15.336 0-27.769 12.433-27.769 27.769 0 15.336 12.433 27.769 27.769 27.769h5.001c8.059 0 14.593 6.533 14.593 14.593v1.519c0 9.717 7.877 17.594 17.595 17.594v-18c.224 0 .405.182.405.405v-1.52c0-17.971-14.621-32.592-32.592-32.592h-5.001c-5.387 0-9.769-4.383-9.769-9.77s4.382-9.769 9.769-9.769h37.956l-.001-17.998z" class="colorf1534d svgShape"></path><path fill="none" stroke="#000000" stroke-linecap="round" stroke-linejoin="round" stroke-miterlimit="10" stroke-width="4" d="M456.161 415.453c-4.589-12.449-16.571-21.35-30.594-21.35h-5.001c-5.387 0-9.769-4.383-9.769-9.77s4.382-9.769 9.769-9.769h37.956v-18h-37.956c-15.336 0-27.769 12.433-27.769 27.769v0c0 15.336 12.433 27.769 27.769 27.769h5.001c8.059 0 14.593 6.533 14.593 14.593v1.519c0 9.717 7.877 17.594 17.595 17.594" class="colorStroke000 svgStroke"></path><path fill="#85203b" d="m507.838 369.298 32.91-1.725 15.369 1.725s10.347 7.682 10.347 9.803c0 2.121-1.016 19.242-1.016 19.242s-24.308 3.253-26.872 5.816c-2.564 2.564-18.032 16.934-18.032 16.934l-14.935-5.795-7.802-20.799 10.031-25.201z" class="color9b2121 svgShape"></path><path fill="#cb3b3b" d="M513.619 356.564h37.956c15.336 0 27.769 12.433 27.769 27.769 0 15.336-12.433 27.769-27.769 27.769h-5.001c-8.059 0-14.593 6.533-14.593 14.593v1.519c0 9.717-7.877 17.594-17.594 17.594v-18a.405.405 0 0 0-.405.405v-1.52c0-17.971 14.621-32.592 32.592-32.592h5.001c5.387 0 9.769-4.383 9.769-9.77s-4.382-9.769-9.769-9.769h-37.956v-17.998z" class="colorf1534d svgShape"></path><path fill="none" stroke="#000000" stroke-linecap="round" stroke-linejoin="round" stroke-miterlimit="10" stroke-width="4" d="M515.98 415.453c4.589-12.449 16.571-21.35 30.594-21.35h5.001c5.387 0 9.769-4.383 9.769-9.77s-4.382-9.769-9.769-9.769h-37.956v-18h37.956c15.336 0 27.769 12.433 27.769 27.769v0c0 15.336-12.433 27.769-27.769 27.769h-5.001c-8.059 0-14.593 6.533-14.593 14.593v1.519c0 9.717-7.877 17.594-17.594 17.594" class="colorStroke000 svgStroke"></path><circle cx="487.925" cy="392.652" r="39" fill="#f46262" class="colorf46262 svgShape"></circle><path fill="#cb3b3b" d="M450.636 381.204c10.765 6.934 23.56 10.976 37.289 10.976 13.729 0 26.524-4.043 37.289-10.976-4.892-15.952-19.734-27.551-37.289-27.551-17.555-.001-32.397 11.599-37.289 27.551z" class="colorf1534d svgShape"></path><circle cx="487.925" cy="392.652" r="39" fill="none" stroke="#000000" stroke-linecap="round" stroke-linejoin="round" stroke-miterlimit="10" stroke-width="4" class="colorStroke000 svgStroke"></circle><path fill="#fff98c" d="M487.925 415.298c-12.703 0-23-10.297-23-23v-17.242a5.758 5.758 0 0 1 5.758-5.758h34.485a5.758 5.758 0 0 1 5.758 5.758v17.242c-.001 12.703-10.298 23-23.001 23z" class="colorffc897 svgShape"></path><path fill="#e0c45c" d="M505.167 369.298h-34.485c-3.18 0-5.758 2.767-5.758 6.181v14.139a64.523 64.523 0 0 0 23 4.243 64.523 64.523 0 0 0 23-4.243v-14.139c.001-3.413-2.577-6.181-5.757-6.181z" class="colore5a973 svgShape"></path><path fill="none" stroke="#000000" stroke-linecap="round" stroke-linejoin="round" stroke-miterlimit="10" stroke-width="4" d="M487.925 415.298h0c-12.703 0-23-10.297-23-23v-17.242a5.758 5.758 0 0 1 5.758-5.758h34.485a5.758 5.758 0 0 1 5.758 5.758v17.242c-.001 12.703-10.298 23-23.001 23z" class="colorStroke000 svgStroke"></path><path fill="#91606d" d="M491.379 674.396h21.447v68.316h-21.447z" class="color607691 svgShape"></path><path fill="none" stroke="#000000" stroke-linecap="round" stroke-linejoin="round" stroke-miterlimit="10" stroke-width="4" d="M491.379 674.396h21.447v68.316h-21.447zM386.52 629.24c-.89-2.07-1.62-4.23-2.15-6.47.989 2.1 1.719 4.26 2.15 6.47zM595.58 629.03c.42-2.06 1.1-4.08 2.01-6.04-.51 2.09-1.191 4.1-2.01 6.04z" class="colorStroke000 svgStroke"></path><path fill="#b5b5b5" d="M595.251 624.18H386.76a14.791 14.791 0 0 1-14.672-12.916l-13.01-101.775c-1.13-8.842 5.759-16.667 14.672-16.667h234.512c8.914 0 15.802 7.825 14.672 16.667l-13.01 101.775a14.792 14.792 0 0 1-14.673 12.916z" class="colorb5b5b5 svgShape"></path><path fill="#7e7e7e" d="M609.924 604.912a14.791 14.791 0 0 1-14.672 12.916H386.76a14.791 14.791 0 0 1-14.672-12.916l-12.823-100.31a14.77 14.77 0 0 0-.187 4.886l13.01 101.775a14.791 14.791 0 0 0 14.672 12.916h208.491a14.791 14.791 0 0 0 14.672-12.916l13.01-101.775a14.769 14.769 0 0 0-.187-4.886l-12.822 100.31z" opacity=".21" class="color7e7e7e svgShape"></path><path fill="#7e7e7e" d="M359.2 510.448c1.227-6.835 7.191-12.172 14.55-12.172h234.512c7.358 0 13.323 5.337 14.55 12.172l.123-.959c1.13-8.842-5.759-16.667-14.672-16.667H373.75c-8.914 0-15.802 7.826-14.672 16.667l.122.959z" opacity=".21" class="color7e7e7e svgShape"></path><path fill="none" stroke="#000000" stroke-linecap="round" stroke-linejoin="round" stroke-miterlimit="10" stroke-width="4" d="M595.251 624.18H386.76a14.791 14.791 0 0 1-14.672-12.916l-13.01-101.775c-1.13-8.842 5.759-16.667 14.672-16.667h234.512c8.914 0 15.802 7.825 14.672 16.667l-13.01 101.775a14.792 14.792 0 0 1-14.673 12.916z" class="colorStroke000 svgStroke"></path><path fill="#b5b5b5" d="M500.932 552.253a8.068 8.068 0 0 1-8.068-8.068c0-.31.021-.614.055-.915a13.37 13.37 0 0 0-2.442-.234c-7.343 0-13.295 5.953-13.295 13.295s5.953 13.295 13.295 13.295 13.295-5.953 13.295-13.295c0-1.531-.272-2.995-.748-4.363a8.02 8.02 0 0 1-2.092.285z" opacity=".66" class="colorb5b5b5 svgShape"></path><path fill="#282324" stroke="#000000" stroke-linecap="round" stroke-linejoin="round" stroke-miterlimit="10" stroke-width="4" d="M604.066 713.161c-3.339-10.675-13.416-16.43-29.809-21.192-10.442-3.033-23.625-4.395-44.264-8.579-10.068-2.041-17.166-5.966-17.166-5.966v11.45s68.523 13.525 79.185 31.247c5.206 8.653 3.603 29.959-20.867 32.151 7.473 1.092 19.797-.794 26.406-7.491 8.191-8.299 10.358-19.333 6.515-31.62z" class="color282323 svgShape colorStroke000 svgStroke"></path><path fill="#442a31" d="M512.827 688.875s41.024 7.598 62.891 17.029c19.215 8.287 18.637 16.853 19.124 25.657.281 5.082-3.289 17.718-17.897 19.876-17.391 2.57-37.936-.179-64.118-16.87v-45.692z" class="color442c2a svgShape"></path><path fill="#442a31" d="M594.842 731.561c-.394-7.123-.095-14.091-10.142-20.881.444 2.46.497 4.94.635 7.439.281 5.082-3.289 17.718-17.897 19.876-15.229 2.25-32.877.421-54.611-11.276v7.848c26.182 16.691 46.727 19.439 64.118 16.87 14.608-2.158 18.178-14.794 17.897-19.876z" opacity=".37" class="color442c2a svgShape"></path><path fill="none" stroke="#000000" stroke-linecap="round" stroke-linejoin="round" stroke-miterlimit="10" stroke-width="4" d="M512.827 688.875s41.024 7.598 62.891 17.029c19.215 8.287 18.637 16.853 19.124 25.657.281 5.082-3.289 17.718-17.897 19.876-17.391 2.57-37.936-.179-64.118-16.87v-45.692z" class="colorStroke000 svgStroke"></path><path fill="none" stroke="#000000" stroke-linecap="round" stroke-linejoin="round" stroke-miterlimit="10" stroke-width="4" d="M550.777 712.398c3.289 1.806 2.487 19.253-5.509 21.695M538.294 711.133c3.419 4.812.964 16.058-5.05 18.882M526.807 707.132c3.419 4.812.964 16.058-5.05 18.882" class="colorStroke000 svgStroke"></path><path fill="none" stroke="#000000" stroke-linecap="round" stroke-linejoin="round" stroke-miterlimit="10" stroke-width="6" d="M452.773 435.716v53.148M520.292 435.716v37.526" class="colorStroke000 svgStroke"></path><circle cx="520.292" cy="476.185" r="8.327" fill="#000000" class="color000 svgShape"></circle><circle cx="520.292" cy="475.185" r="3.353" fill="#7e7e7e" class="color7e7e7e svgShape"></circle><path fill="#fff98c" d="M487.925 386.18c-34.835 0-63.074-28.239-63.074-63.073v-73.238h126.147v73.238c0 34.834-28.238 63.073-63.073 63.073z" class="colorffc897 svgShape"></path><path fill="#e0c45c" d="M487.925 377.454c-34.835 0-63.074-28.239-63.074-63.073v8.726c0 34.835 28.239 63.073 63.073 63.073 34.835 0 63.073-28.239 63.073-63.073v-8.726c.001 34.834-28.237 63.073-63.072 63.073z" class="colore5a973 svgShape"></path><path fill="none" stroke="#000000" stroke-linecap="round" stroke-linejoin="round" stroke-miterlimit="10" stroke-width="4" d="M487.925 386.18h0c-34.835 0-63.074-28.239-63.074-63.073v-73.238h126.147v73.238c0 34.834-28.238 63.073-63.073 63.073z" class="colorStroke000 svgStroke"></path><path fill="#e0c45c" d="M551.541 257.175c-.199-3.437-.38-6.876-.542-10.317-42.041 1.985-84.173 1.674-126.131-1.981-.277 3.89-.534 7.782-.769 11.677a497.204 497.204 0 0 0 5.806 5.159c1.639.818 3.742 1.924 5.589 2.88 8.401 4.382 20.123 10.031 31.271 12.152 4.121.795 8.435 1.177 12.806 1.147 18.933-.175 34.81-7.703 41.501-10.81.987-.462 1.839-.862 2.286-1.044.418-.17.85-.258 1.358-.28 1.172-.048 2.61.259 4.278.607 2.24.468 4.784.986 7.667.829 3.295-.178 6.344-1.216 9.187-3.114 1.902-2.309 3.8-4.611 5.693-6.905z" class="colore5a973 svgShape"></path><path fill="#23171a" d="M521.059 219.164s-50.486-33.318-92.307 3.861c-7.751 6.891-10.906 16.763-10.906 25.924v48.247h7.006v-35.007c0-2.55 1.769-4.617 3.951-4.617 3.568 0 23.103 10.408 39.562 13.275 24.875 4.333 47.648-7.231 52.46-8.945 8.369-2.981 15.219 7.365 25.849-4.33h.374c2.182 0 3.951 2.067 3.951 4.617v35.007h7.006V249.18c-.001-11.667-13.621-41.307-36.946-30.016z" class="color231a17 svgShape"></path><path fill="#23171a" d="M417.846 290.639h7.006v6.557h-7.006zM550.998 290.639h7.006v6.557h-7.006z" opacity=".34" class="color231a17 svgShape"></path><path fill="none" stroke="#000000" stroke-linecap="round" stroke-linejoin="round" stroke-miterlimit="10" stroke-width="4" d="M521.059 219.164s-50.486-33.318-92.307 3.861c-7.751 6.891-10.906 16.763-10.906 25.924v48.247h7.006v-35.007c0-2.55 1.769-4.617 3.951-4.617h0c3.568 0 23.103 10.408 39.562 13.275 24.875 4.333 47.648-7.231 52.46-8.945 8.369-2.981 15.219 7.365 25.849-4.33h.374c2.182 0 3.951 2.067 3.951 4.617v35.007h7.006V249.18c-.001-11.667-13.621-41.307-36.946-30.016z" class="colorStroke000 svgStroke"></path><path fill="none" stroke="#000000" stroke-linecap="round" stroke-linejoin="round" stroke-miterlimit="10" stroke-width="4" d="M478.43 251.667s-54.19 3.518-65.739-25.271M486.071 244.759s-52.234-3.34-65.833-32.067" class="colorStroke000 svgStroke"></path><path fill="#fff98c" d="M550.998 289.404v32.768c6.969 0 12.619-7.335 12.619-16.384 0-9.048-5.649-16.384-12.619-16.384z" class="colorffc897 svgShape"></path><path fill="#e0c45c" d="M550.998 291.227v29.123c4.066-2.72 6.852-8.213 6.852-14.561 0-6.349-2.786-11.842-6.852-14.562z" class="colore5a973 svgShape"></path><path fill="none" stroke="#000000" stroke-linecap="round" stroke-linejoin="round" stroke-miterlimit="10" stroke-width="4" d="M550.998 289.404v32.768c6.969 0 12.619-7.335 12.619-16.384v0c0-9.048-5.649-16.384-12.619-16.384z" class="colorStroke000 svgStroke"></path><path fill="#fff98c" d="M424.851 289.404v32.768c-6.969 0-12.619-7.335-12.619-16.384.001-9.048 5.65-16.384 12.619-16.384z" class="colorffc897 svgShape"></path><path fill="#e0c45c" d="M424.851 291.788c-3.645 2.873-6.089 8.059-6.089 14 0 5.941 2.444 11.128 6.089 14v-28z" class="colore5a973 svgShape"></path><path fill="none" stroke="#000000" stroke-linecap="round" stroke-linejoin="round" stroke-miterlimit="10" stroke-width="4" d="M424.851 289.404v32.768c-6.969 0-12.619-7.335-12.619-16.384v0c.001-9.048 5.65-16.384 12.619-16.384zM485.338 316.085l-4.203 13.731c0 1.494 4.935.279 9.87 1.493" class="colorStroke000 svgStroke"></path><path fill="none" stroke="#000000" stroke-linecap="round" stroke-linejoin="round" stroke-miterlimit="10" stroke-width="3" d="M508.937 341.671c1.537 10.415-11.857 19.629-22.379 17.719" class="colorStroke000 svgStroke"></path><ellipse cx="465.154" cy="299.965" fill="none" stroke="#000000" stroke-linecap="round" stroke-linejoin="round" stroke-miterlimit="10" stroke-width="2" rx="4.198" ry="4.502" class="colorStroke000 svgStroke"></ellipse><ellipse cx="465.154" cy="299.965" rx="4.198" ry="4.502" fill="#000000" class="color000 svgShape"></ellipse><path fill="none" stroke="#000000" stroke-linecap="round" stroke-linejoin="round" stroke-miterlimit="10" stroke-width="3" d="M450.653 290.479c2.106-2.49 7.036-4.236 12.782-4.236 4.568 0 8.62 1.104 11.148 2.807" class="colorStroke000 svgStroke"></path><ellipse cx="511.204" cy="299.965" fill="none" stroke="#000000" stroke-linecap="round" stroke-linejoin="round" stroke-miterlimit="10" stroke-width="2" rx="4.198" ry="4.502" class="colorStroke000 svgStroke"></ellipse><ellipse cx="511.204" cy="299.965" rx="4.198" ry="4.502" fill="#000000" class="color000 svgShape"></ellipse><path fill="none" stroke="#000000" stroke-linecap="round" stroke-linejoin="round" stroke-miterlimit="10" stroke-width="3" d="M525.705 290.479c-2.106-2.49-7.036-4.236-12.782-4.236-4.568 0-8.62 1.104-11.148 2.807" class="colorStroke000 svgStroke"></path></svg></g></svg>